<?xml version="1.0" encoding="iso-8859-1"?>
<svg version="1.1" id="Layer_1" xmlns="http://www.w3.org/2000/svg" xmlns:xlink="http://www.w3.org/1999/xlink" viewBox="0 0 512 512" xml:space="preserve"><g><g><g><path d="M341.333,392.533c0-47.053-38.281-85.333-85.333-85.333s-85.333,38.281-85.333,85.333 c0,47.053,38.281,85.333,85.333,85.333S341.333,439.586,341.333,392.533z M187.733,392.533c0-37.641,30.626-68.267,68.267-68.267 c37.641,0,68.267,30.626,68.267,68.267c0,37.641-30.626,68.267-68.267,68.267C218.359,460.8,187.733,430.174,187.733,392.533z"/><path d="M358.4,494.933H42.667c-14.592,0-25.6-11.008-25.6-25.6V128c0-4.71-3.823-8.533-8.533-8.533S0,123.29,0,128v341.333 C0,493.261,18.739,512,42.667,512H358.4c4.71,0,8.533-3.823,8.533-8.533S363.11,494.933,358.4,494.933z"/><path d="M469.333,0H42.667C19.14,0,0,19.14,0,42.667v51.2c0,4.71,3.823,8.533,8.533,8.533h460.8c4.71,0,8.533-3.823,8.533-8.533 c0-4.71-3.823-8.533-8.533-8.533H17.067V42.667c0-14.114,11.486-25.6,25.6-25.6h426.667c14.114,0,25.6,11.486,25.6,25.6v426.667 c0,14.592-11.008,25.6-25.6,25.6h-64l-19.046-25.404c7.902-10.624,13.534-23.151,16.776-33.365 c11.836-2.543,22.784-4.89,25.327-5.41c9.617-1.98,15.351-9.89,15.351-21.163c-0.009-6.4-0.009-27.904,0-34.142 c-0.017-11.179-5.726-19.081-15.275-21.137l-25.344-5.427c-3.046-10.283-7.151-20.181-12.237-29.559 c6.562-10.146,12.621-19.507,14.046-21.666c5.393-8.201,3.857-17.843-4.113-25.813l-24.141-24.141 c-7.919-7.902-17.536-9.455-25.762-4.147l-21.734,14.071c-9.378-5.086-19.285-9.19-29.568-12.228 c-2.534-11.802-4.864-22.716-5.393-25.259c-1.971-9.609-9.89-15.343-21.154-15.343h-34.133c-11.187,0-19.089,5.709-21.146,15.275 l-5.427,25.335c-10.283,3.046-20.19,7.142-29.568,12.237c-10.138-6.554-19.499-12.612-21.666-14.046 c-8.183-5.376-17.835-3.849-25.805,4.122l-24.141,24.132c-7.902,7.902-9.455,17.527-4.147,25.754l14.071,21.734 c-5.094,9.37-9.19,19.285-12.237,29.568c-11.802,2.534-22.724,4.873-25.267,5.402c-9.6,1.988-15.334,9.899-15.334,21.163V409.6 c0,11.179,5.709,19.081,15.275,21.146l25.395,5.436c4.557,14.438,12.604,29.252,21.257,38.861 c3.149,3.507,8.542,3.78,12.049,0.631s3.789-8.542,0.631-12.049c-9.071-10.086-16.026-25.779-18.893-36.855 c-0.811-3.123-3.32-5.53-6.477-6.204l-30.379-6.511c-0.623-0.137-1.792-0.384-1.792-4.454v-34.133 c0-4.087,1.254-4.352,1.715-4.446c2.91-0.597,16.785-3.567,30.456-6.511c3.157-0.674,5.666-3.081,6.468-6.204 c3.183-12.314,8.047-24.064,14.455-34.927c1.638-2.782,1.57-6.246-0.188-8.96l-16.87-26.078c-0.35-0.538-0.998-1.545,1.877-4.42 l24.141-24.141c2.876-2.876,3.951-2.185,4.361-1.92c2.475,1.63,14.387,9.335,26.121,16.922c2.714,1.749,6.195,1.835,8.969,0.188 c10.863-6.409,22.613-11.273,34.918-14.455c3.132-0.811,5.53-3.319,6.212-6.477l6.511-30.387 c0.137-0.623,0.384-1.783,4.454-1.783h34.133c4.087,0,4.343,1.246,4.446,1.715c0.589,2.91,3.567,16.785,6.502,30.455 c0.674,3.157,3.081,5.666,6.204,6.468c12.314,3.183,24.064,8.047,34.927,14.447c2.782,1.647,6.255,1.57,8.969-0.188l26.061-16.87 c0.538-0.341,1.562-1.007,4.437,1.877l24.149,24.141c2.884,2.893,2.176,3.959,1.911,4.369c-1.63,2.475-9.335,14.387-16.93,26.121 c-1.749,2.714-1.826,6.178-0.179,8.969c6.409,10.854,11.273,22.605,14.455,34.91c0.811,3.132,3.311,5.53,6.468,6.212 l30.387,6.511c0.623,0.136,1.792,0.384,1.801,4.446c-0.009,6.221-0.009,27.759,0,34.15c0,4.079-1.254,4.343-1.732,4.437 c-2.901,0.597-16.776,3.575-30.447,6.511c-3.157,0.674-5.666,3.081-6.468,6.204c-3.456,13.346-10.889,27.836-18.944,36.915 c-2.688,3.038-2.876,7.543-0.444,10.786l25.6,34.133c1.613,2.15,4.139,3.413,6.827,3.413h68.267 C493.261,512,512,493.261,512,469.333V42.667C512,19.14,492.86,0,469.333,0z"/><path d="M290.133,392.533c0-18.825-15.309-34.133-34.133-34.133c-18.825,0-34.133,15.309-34.133,34.133 c0,18.825,15.309,34.133,34.133,34.133C274.825,426.667,290.133,411.358,290.133,392.533z M238.933,392.533 c0-9.412,7.654-17.067,17.067-17.067c9.412,0,17.067,7.654,17.067,17.067c0,9.412-7.654,17.067-17.067,17.067 C246.588,409.6,238.933,401.946,238.933,392.533z"/><path d="M128,153.6c4.71,0,8.533-3.823,8.533-8.533c0-4.71-3.823-8.533-8.533-8.533H59.733c-4.71,0-8.533,3.823-8.533,8.533 c0,4.71,3.823,8.533,8.533,8.533H128z"/><path d="M315.733,153.6c4.71,0,8.533-3.823,8.533-8.533c0-4.71-3.823-8.533-8.533-8.533H281.6c-4.71,0-8.533,3.823-8.533,8.533 c0,4.71,3.823,8.533,8.533,8.533H315.733z"/><path d="M102.4,51.2c0,9.412,7.654,17.067,17.067,17.067s17.067-7.654,17.067-17.067c0-9.412-7.654-17.067-17.067-17.067 S102.4,41.788,102.4,51.2z"/><path d="M51.2,51.2c0,9.412,7.654,17.067,17.067,17.067c9.412,0,17.067-7.654,17.067-17.067c0-9.412-7.654-17.067-17.067-17.067 C58.854,34.133,51.2,41.788,51.2,51.2z"/><path d="M153.6,51.2c0,9.412,7.654,17.067,17.067,17.067c9.412,0,17.067-7.654,17.067-17.067c0-9.412-7.654-17.067-17.067-17.067 C161.254,34.133,153.6,41.788,153.6,51.2z"/><path d="M452.267,153.6c4.71,0,8.533-3.823,8.533-8.533c0-4.71-3.823-8.533-8.533-8.533h-34.133c-4.71,0-8.533,3.823-8.533,8.533 c0,4.71,3.823,8.533,8.533,8.533H452.267z"/><path d="M384,153.6c4.71,0,8.533-3.823,8.533-8.533c0-4.71-3.823-8.533-8.533-8.533h-34.133c-4.71,0-8.533,3.823-8.533,8.533 c0,4.71,3.823,8.533,8.533,8.533H384z"/></g></g></g></svg>